<svg id="Layer_1" viewBox="0 0 24 24" xmlns="http://www.w3.org/2000/svg" data-name="Layer 1"><path d="m15.554 1.286c-.158 2.391.009 4.449.13 5.503 1.396.124 4.416.333 6.821.079.016-.002.032-.003.048-.004-.061-.188-6.614-5.408-6.614-5.408-.113-.089-.244-.152-.384-.186v.015z"/><g><path d="m11.689 13.979c-.138 0-.317.003-.496.009-.058.39-.113.943-.113 1.631 0 .768.043 1.291.089 1.631.184.005.373.009.521.009 1.192 0 1.615-.248 1.615-1.64s-.423-1.64-1.615-1.64z"/><path d="m22.856 8.831c-.046.012-.094.02-.142.026-.914.096-1.896.132-2.847.132-2.638 0-5.049-.273-5.185-.289-.442-.051-.798-.388-.872-.827-.021-.121-.498-3.011-.253-6.719.003-.039.008-.077.015-.115-.451-.026-.929-.039-1.439-.039-4.857 0-8.98.771-9.154.803-.366.069-.664.337-.771.695-.049.164-1.208 4.275-1.208 9.502 0 5.271 1.16 8.956 1.209 9.118.1.326.356.579.685.671.174.05 4.327 1.211 9.239 1.211s9.064-1.161 9.24-1.21c.351-.099.619-.381.702-.737.037-.163.925-3.857.925-9.053 0-1.065-.048-2.244-.144-3.169zm-17.472 8.231c.064.598.146.975.147.981.118.539-.222 1.072-.761 1.192-.634.141-1.088-.292-1.191-.758-.012-.05-.273-1.242-.273-2.842 0-1.541.146-2.702.151-2.75.057-.442.398-.794.839-.862.263-.04.962-.043.962-.043 2.658 0 3.216 1.382 3.216 2.542 0 1.141-.54 2.498-3.09 2.541zm6.306 2.197c-.011 0-1.079-.004-1.484-.071-.306-.05-.571-.239-.718-.512-.123-.227-.407-.979-.407-3.057 0-1.733.297-2.759.33-2.871.11-.362.416-.631.789-.695.409-.07 1.479-.074 1.49-.074 2.398 0 3.615 1.225 3.615 3.64s-1.217 3.64-3.615 3.64zm9.522-6.17c-.046.55-.535.961-1.079.915-.668-.057-1.462.019-1.954.112-.03.175-.061.385-.086.621h1.799c.553 0 1 .448 1 1s-.447 1-1 1h-1.776c.085.729.218 1.277.219 1.285.132.536-.196 1.078-.732 1.209-.623.153-1.098-.276-1.209-.733-.015-.058-.348-1.431-.348-2.878 0-1.456.315-2.567.329-2.614.095-.328.351-.585.678-.682.048-.014 1.185-.345 2.511-.345.253 0 .499.012.732.031.551.045.96.528.915 1.079z"/><path d="m5.364 13.98c-.021.302-.041.671-.052 1.083 1.161-.008 1.161-.255 1.161-.542 0-.293 0-.527-1.109-.542z"/></g></svg>